# Blender v3.2.2 OBJ File: 'board.blend'
# www.blender.org
mtllib message-board-emissive.mtl
o Emissive_Cube.005
v 0.035828 0.240006 0.000000
v 0.035828 0.000000 0.760314
v 0.035828 0.000000 0.000000
v 0.035828 0.190586 0.760314
v 0.035828 0.240006 0.710894
v 0.035828 0.209498 0.756552
v 0.035828 0.225531 0.745839
v 0.035828 0.236244 0.729806
v 0.035828 0.000000 -0.760314
v 0.035828 0.190586 -0.760314
v 0.035828 0.240006 -0.710894
v 0.035828 0.209498 -0.756552
v 0.035828 0.225531 -0.745839
v 0.035828 0.236244 -0.729806
v 0.035828 -0.240006 0.000000
v 0.035828 -0.190586 0.760314
v 0.035828 -0.240006 0.710894
v 0.035828 -0.209498 0.756552
v 0.035828 -0.225531 0.745839
v 0.035828 -0.236244 0.729806
v 0.035828 -0.190586 -0.760314
v 0.035828 -0.240006 -0.710894
v 0.035828 -0.209498 -0.756552
v 0.035828 -0.225531 -0.745839
v 0.035828 -0.236244 -0.729806
vt 0.501526 0.781035
vt 0.501526 0.932924
vt 0.051631 0.932924
vt 0.039663 0.930543
vt 0.029516 0.923764
vt 0.022736 0.913617
vt 0.020356 0.901648
vt 0.020356 0.781035
vt 0.982697 0.781035
vt 0.982697 0.901648
vt 0.980317 0.913617
vt 0.973537 0.923764
vt 0.963390 0.930543
vt 0.951421 0.932924
vt 0.020356 0.660421
vt 0.022736 0.648452
vt 0.029516 0.638305
vt 0.039663 0.631526
vt 0.051631 0.629145
vt 0.501526 0.629145
vt 0.951421 0.629145
vt 0.963390 0.631526
vt 0.973537 0.638305
vt 0.980317 0.648452
vt 0.982697 0.660421
vn 1.0000 -0.0000 0.0000
usemtl castor-board-emissive
s off
f 3/1/1 1/2/1 5/3/1 8/4/1 7/5/1 6/6/1 4/7/1 2/8/1
f 3/1/1 9/9/1 10/10/1 12/11/1 13/12/1 14/13/1 11/14/1 1/2/1
f 3/1/1 2/8/1 16/15/1 18/16/1 19/17/1 20/18/1 17/19/1 15/20/1
f 3/1/1 15/20/1 22/21/1 25/22/1 24/23/1 23/24/1 21/25/1 9/9/1
